<svg xmlns="http://www.w3.org/2000/svg" xmlns:xlink="http://www.w3.org/1999/xlink" version="1.1"
    id="Layer_1" x="0px" y="0px" viewBox="0 0 512 512" style="enable-background:new 0 0 512 512;"
    xml:space="preserve">
    <style type="text/css">
        .st0{fill:#FFFFFF;}
    </style>
    <g id="XMLID_21_">
        <polyline id="XMLID_23_" class="st0" points="0.05,173.98 0.05,338.06 51.93,338.06 51.93,278.85 87.9,278.85 101.87,242.88    51.93,242.88 51.93,209.67 112.8,209.67 126.08,173.98 0.05,173.98  "/>
        <polyline id="XMLID_27_" class="st0" points="141.85,173.98 141.71,338.06 193.04,338.06 193.04,173.98 141.85,173.98  "/>
        <path id="XMLID_30_" class="st0" d="M394.05,284.52l19.78-68.34l20.47,68.34H394.05z M441.22,173.98H388.1l-58.93,164.07h49.53   l6.36-22h57.69l6.64,22h51.05L441.22,173.98"/>
        <polyline id="XMLID_31_" class="st0" points="228.31,173.98 228.31,338.06 280.19,338.06 280.19,278.85 316.16,278.85    330.27,242.88 280.19,242.88 280.19,209.67 341.06,209.67 354.48,173.98 228.31,173.98  "/>
        
    </g>
</svg>
